<svg width="32" height="24" viewBox="0 0 32 24" fill="none" xmlns="http://www.w3.org/2000/svg">
<path d="M18.9091 8.40038V6.61623C19.7091 6.26931 20.5273 6.00913 21.3636 5.83567C22.2 5.66221 23.0788 5.57548 24 5.57548C24.6303 5.57548 25.2485 5.62504 25.8545 5.72416C26.4606 5.82328 27.0545 5.94718 27.6364 6.09585V7.73133C27.0545 7.50831 26.4667 7.34104 25.8727 7.22954C25.2788 7.11803 24.6545 7.06227 24 7.06227C23.0788 7.06227 22.1939 7.17998 21.3455 7.41538C20.497 7.65079 19.6848 7.97913 18.9091 8.40038ZM18.9091 16.5777V14.7564C19.7091 14.4095 20.5273 14.1555 21.3636 13.9944C22.2 13.8334 23.0788 13.7528 24 13.7528C24.6303 13.7528 25.2485 13.8024 25.8545 13.9015C26.4606 14.0006 27.0545 14.1245 27.6364 14.2732V15.9087C27.0545 15.6857 26.4667 15.5184 25.8727 15.4069C25.2788 15.2954 24.6545 15.2396 24 15.2396C23.0788 15.2396 22.1939 15.3511 21.3455 15.5742C20.497 15.7972 19.6848 16.1317 18.9091 16.5777ZM18.9091 12.4891V10.7049C19.7091 10.358 20.5273 10.0978 21.3636 9.92435C22.2 9.75089 23.0788 9.66416 24 9.66416C24.6303 9.66416 25.2485 9.71372 25.8545 9.81284C26.4606 9.91196 27.0545 10.0359 27.6364 10.1845V11.82C27.0545 11.597 26.4667 11.4297 25.8727 11.3182C25.2788 11.2067 24.6545 11.151 24 11.151C23.0788 11.151 22.1939 11.2687 21.3455 11.5041C20.497 11.7395 19.6848 12.0678 18.9091 12.4891ZM7.56364 18.5849C8.87273 18.5849 10.1394 18.7398 11.3636 19.0495C12.5879 19.3593 13.7939 19.8239 14.9818 20.4434V4.57189C13.8909 3.82849 12.7091 3.25236 11.4364 2.84349C10.1636 2.43462 8.87273 2.23019 7.56364 2.23019C6.64242 2.23019 5.73939 2.3479 4.85455 2.5833C3.9697 2.81871 3.07879 3.10988 2.18182 3.4568V19.5885C2.93333 19.2416 3.78788 18.9876 4.74545 18.8265C5.70303 18.6655 6.64242 18.5849 7.56364 18.5849ZM17.1636 20.4434C18.3758 19.8239 19.5636 19.3593 20.7273 19.0495C21.8909 18.7398 23.1273 18.5849 24.4364 18.5849C25.3576 18.5849 26.3091 18.6593 27.2909 18.8079C28.2727 18.9566 29.1152 19.1549 29.8182 19.4027V3.4568C28.9939 3.03554 28.1212 2.72579 27.2 2.52755C26.2788 2.32931 25.3576 2.23019 24.4364 2.23019C23.1273 2.23019 21.8606 2.43462 20.6364 2.84349C19.4121 3.25236 18.2545 3.82849 17.1636 4.57189V20.4434ZM16.0727 23.7887C14.8364 22.8471 13.4909 22.1223 12.0364 21.6143C10.5818 21.1063 9.09091 20.8523 7.56364 20.8523C6.66667 20.8523 5.79394 20.9638 4.94545 21.1868C4.09697 21.4098 3.24849 21.6824 2.4 22.0045C1.84242 22.2771 1.30303 22.24 0.781818 21.893C0.260606 21.5461 0 21.0505 0 20.4062V3.19661C0 2.82491 0.0848484 2.48418 0.254545 2.17444C0.424242 1.86469 0.678788 1.62308 1.01818 1.44962C2.03636 0.954026 3.09697 0.588523 4.2 0.353114C5.30303 0.117705 6.42424 0 7.56364 0C9.09091 0 10.5758 0.210629 12.0182 0.631888C13.4606 1.05315 14.8121 1.69742 16.0727 2.56472C17.3091 1.69742 18.6364 1.05315 20.0545 0.631888C21.4727 0.210629 22.9333 0 24.4364 0C25.5758 0 26.6909 0.117705 27.7818 0.353114C28.8727 0.588523 29.9273 0.954026 30.9455 1.44962C31.2848 1.62308 31.5455 1.86469 31.7273 2.17444C31.9091 2.48418 32 2.82491 32 3.19661V20.4062C32 21.1001 31.7273 21.6267 31.1818 21.986C30.6364 22.3453 30.097 22.3515 29.5636 22.0045C28.7394 21.6576 27.903 21.3789 27.0545 21.1682C26.2061 20.9576 25.3333 20.8523 24.4364 20.8523C22.9091 20.8523 21.4424 21.1125 20.0364 21.6328C18.6303 22.1532 17.3091 22.8718 16.0727 23.7887Z" fill="url(#paint0_linear_8_46)"/>
<defs>
<linearGradient id="paint0_linear_8_46" x1="16" y1="0" x2="16" y2="23.7887" gradientUnits="userSpaceOnUse">
<stop stop-color="#FE481C"/>
<stop offset="1" stop-color="#FF9A62"/>
</linearGradient>
</defs>
</svg>
