<svg width="32" height="27" viewBox="0 0 32 27" fill="none" xmlns="http://www.w3.org/2000/svg">
<path d="M15.7466 26.8916L22.2986 10.7566H25.267L32 26.8916H28.8507L27.3665 22.6562H20.4163L18.7149 26.8916H15.7466ZM21.2127 20.3031H26.3529L23.819 13.7819H23.7466L21.2127 20.3031ZM4.34389 22.8578L2.35294 21.009L9.73756 14.1517C8.82051 13.1657 8.00603 12.174 7.29412 11.1768C6.5822 10.1796 5.96078 9.14314 5.42986 8.06747H8.57919C8.98944 8.80699 9.44193 9.50729 9.93665 10.1684C10.4314 10.8295 10.9925 11.5074 11.6199 12.2021C12.7059 11.1488 13.6109 10.0563 14.3348 8.92464C15.0588 7.79295 15.6742 6.61085 16.181 5.37831H0V2.68916H10.1357V0H13.0317V2.68916H23.1674V5.37831H19.0769C18.546 6.92458 17.8401 8.44283 16.9593 9.93307C16.0784 11.4233 14.9985 12.8407 13.7195 14.1853L17.267 17.5131L16.181 20.2359L11.5837 16.1349L4.34389 22.8578Z" fill="url(#paint0_linear_13_4)"/>
<defs>
<linearGradient id="paint0_linear_13_4" x1="16" y1="0" x2="16" y2="26.8916" gradientUnits="userSpaceOnUse">
<stop stop-color="#FE481C"/>
<stop offset="1" stop-color="#FF9A62"/>
</linearGradient>
</defs>
</svg>
