<svg width="140" height="34" viewBox="0 0 140 34" fill="none" xmlns="http://www.w3.org/2000/svg">
<path d="M7.16001 5.28V27.8H17.96L17.28 33H0.600006V5.28H7.16001Z" fill="#0E0E0E"/>
<path d="M29.3078 11.76V33H22.9878V11.76H29.3078ZM26.1078 0.559998C27.2012 0.559998 28.0945 0.906665 28.7878 1.6C29.5078 2.26666 29.8678 3.12 29.8678 4.16C29.8678 5.2 29.5078 6.06666 28.7878 6.76C28.0945 7.42666 27.2012 7.76 26.1078 7.76C25.0145 7.76 24.1212 7.42666 23.4278 6.76C22.7345 6.06666 22.3878 5.2 22.3878 4.16C22.3878 3.12 22.7345 2.26666 23.4278 1.6C24.1212 0.906665 25.0145 0.559998 26.1078 0.559998Z" fill="#0E0E0E"/>
<path d="M48.7169 11.08C50.5569 11.08 51.9969 11.64 53.0369 12.76C54.0769 13.88 54.5969 15.4533 54.5969 17.48V33H48.2769V18.56C48.2769 17.4933 48.1035 16.76 47.7569 16.36C47.4369 15.9333 46.9435 15.72 46.2769 15.72C44.9969 15.72 43.7702 16.64 42.5969 18.48V33H36.2769V11.76H41.7969L42.2369 14.28C43.1435 13.2133 44.1169 12.4133 45.1569 11.88C46.2235 11.3467 47.4102 11.08 48.7169 11.08Z" fill="#0E0E0E"/>
<path d="M70.5628 11.08C72.0295 11.08 73.3495 11.2933 74.5228 11.72C75.6962 12.1467 76.8028 12.8 77.8428 13.68L75.1228 17.44C73.7895 16.4267 72.4428 15.92 71.0828 15.92C69.6695 15.92 68.6028 16.44 67.8828 17.48C67.1628 18.52 66.8028 20.2 66.8028 22.52C66.8028 24.76 67.1628 26.3467 67.8828 27.28C68.6028 28.2133 69.6428 28.68 71.0028 28.68C71.7228 28.68 72.3762 28.5733 72.9628 28.36C73.5495 28.12 74.2561 27.7467 75.0828 27.24L77.8428 31.16C75.7362 32.84 73.3495 33.68 70.6828 33.68C68.5228 33.68 66.6562 33.2267 65.0828 32.32C63.5095 31.3867 62.2962 30.0933 61.4428 28.44C60.5895 26.76 60.1628 24.8 60.1628 22.56C60.1628 20.32 60.5895 18.3333 61.4428 16.6C62.2962 14.8667 63.5095 13.52 65.0828 12.56C66.6562 11.5733 68.4828 11.08 70.5628 11.08Z" fill="#0E0E0E"/>
<path d="M90.9222 11.08C94.1755 11.08 96.7222 12.08 98.5622 14.08C100.402 16.0533 101.322 18.8267 101.322 22.4C101.322 24.6667 100.896 26.6533 100.042 28.36C99.2155 30.04 98.0155 31.3467 96.4422 32.28C94.8955 33.2133 93.0555 33.68 90.9222 33.68C87.6955 33.68 85.1489 32.6933 83.2822 30.72C81.4422 28.72 80.5222 25.9333 80.5222 22.36C80.5222 20.0933 80.9355 18.12 81.7622 16.44C82.6155 14.7333 83.8155 13.4133 85.3622 12.48C86.9355 11.5467 88.7889 11.08 90.9222 11.08ZM90.9222 15.72C89.6422 15.72 88.6822 16.2667 88.0422 17.36C87.4022 18.4267 87.0822 20.0933 87.0822 22.36C87.0822 24.68 87.3889 26.3733 88.0022 27.44C88.6422 28.5067 89.6155 29.04 90.9222 29.04C92.2022 29.04 93.1622 28.5067 93.8022 27.44C94.4422 26.3467 94.7622 24.6667 94.7622 22.4C94.7622 20.08 94.4422 18.3867 93.8022 17.32C93.1889 16.2533 92.2289 15.72 90.9222 15.72Z" fill="#0E0E0E"/>
<path d="M112.722 33.68C110.882 33.68 109.442 33.16 108.402 32.12C107.388 31.0533 106.882 29.5467 106.882 27.6V3.32L113.202 2.64V27.36C113.202 28.24 113.562 28.68 114.282 28.68C114.655 28.68 115.002 28.6133 115.322 28.48L116.562 32.96C115.415 33.44 114.135 33.68 112.722 33.68Z" fill="#0E0E0E"/>
<path d="M133.397 11.08C135.237 11.08 136.677 11.64 137.717 12.76C138.757 13.88 139.277 15.4533 139.277 17.48V33H132.957V18.56C132.957 17.4933 132.783 16.76 132.437 16.36C132.117 15.9333 131.623 15.72 130.957 15.72C129.677 15.72 128.45 16.64 127.277 18.48V33H120.957V11.76H126.477L126.917 14.28C127.823 13.2133 128.797 12.4133 129.837 11.88C130.903 11.3467 132.09 11.08 133.397 11.08Z" fill="#0E0E0E"/>
</svg>
