<svg width="39" height="39" viewBox="0 0 39 39" fill="none" xmlns="http://www.w3.org/2000/svg">
<path d="M19.5 26.8937C22.3167 24.6187 24.4427 22.4318 25.8781 20.3328C27.3135 18.2339 28.0312 16.2771 28.0312 14.4625C28.0312 12.8646 27.7401 11.5104 27.1578 10.4C26.5755 9.28958 25.8578 8.38229 25.0047 7.67812C24.1516 6.97396 23.224 6.46615 22.2219 6.15469C21.2198 5.84323 20.3125 5.6875 19.5 5.6875C18.6875 5.6875 17.7802 5.84323 16.7781 6.15469C15.776 6.46615 14.8484 6.97396 13.9953 7.67812C13.1422 8.38229 12.4245 9.28958 11.8422 10.4C11.2599 11.5104 10.9687 12.8646 10.9688 14.4625C10.9688 16.2771 11.6865 18.2339 13.1219 20.3328C14.5573 22.4318 16.6833 24.6187 19.5 26.8937ZM19.5 29.9813C15.7896 27.1917 13.0339 24.524 11.2328 21.9781C9.43177 19.4323 8.53125 16.9271 8.53125 14.4625C8.53125 12.6208 8.86302 11.0026 9.52656 9.60781C10.1901 8.21302 11.05 7.04167 12.1062 6.09375C13.1625 5.14583 14.3406 4.4349 15.6406 3.96094C16.9406 3.48698 18.2271 3.25 19.5 3.25C20.7729 3.25 22.0594 3.48698 23.3594 3.96094C24.6594 4.4349 25.8375 5.14583 26.8937 6.09375C27.95 7.04167 28.8099 8.21302 29.4734 9.60781C30.137 11.0026 30.4688 12.6208 30.4688 14.4625C30.4688 16.9271 29.5682 19.4323 27.7672 21.9781C25.9661 24.524 23.2104 27.1917 19.5 29.9813ZM19.5 17.0625C20.2854 17.0625 20.9557 16.7849 21.5109 16.2297C22.0661 15.6745 22.3438 15.0042 22.3438 14.2188C22.3438 13.4333 22.0661 12.763 21.5109 12.2078C20.9557 11.6526 20.2854 11.375 19.5 11.375C18.7146 11.375 18.0443 11.6526 17.4891 12.2078C16.9339 12.763 16.6562 13.4333 16.6562 14.2188C16.6562 15.0042 16.9339 15.6745 17.4891 16.2297C18.0443 16.7849 18.7146 17.0625 19.5 17.0625ZM8.53125 35.75V33.3125H30.4688V35.75H8.53125Z" fill="url(#paint0_linear_4_87)"/>
<defs>
<linearGradient id="paint0_linear_4_87" x1="19.5" y1="3.25" x2="19.5" y2="35.75" gradientUnits="userSpaceOnUse">
<stop stop-color="#FE481C"/>
<stop offset="1" stop-color="#FF9A62"/>
</linearGradient>
</defs>
</svg>
